# xmcd CD database file
#
# Track frame offsets:
#	150
#	20058
#	36964
#	56357
#	77160
#	94437
#	113910
#	135683
#	152644
#	172975
#	189695
#	208770
#	223310
#	243402
#	261086
#	280463
#	297471
#	315974
#	336722
#
# Disc length: 4701 seconds
#
# Revision: 4
# Processed by: cddbd v1.5.2PL0 Copyright (c) Steve Scherf et al.
# Submitted via: CDex 1.70beta3
#
DISCID=2d125b13
DTITLE=MONKEY MAJIK - MONKEY MAJIK ～10　Years and Forever～
DYEAR=2010
DGENRE=JPop
TTITLE0=fly
TTITLE1=Around The World
TTITLE2=フタリ
TTITLE3=Change
TTITLE4=空はまるで
TTITLE5=Together
TTITLE6=あいたくて
TTITLE7=ただ、ありがとう
TTITLE8=アイシテル
TTITLE9=虹色の魚
TTITLE10=Open Happiness
TTITLE11=MONSTER
TTITLE12=SAKURA
TTITLE13=FOREVER
TTITLE14=Fast Forward
TTITLE15=大丈夫
TTITLE16=tired
TTITLE17=Lily
TTITLE18=Livin' in the sun
EXTD=YEAR: 2010
EXTT0=
EXTT1=
EXTT2=
EXTT3=
EXTT4=
EXTT5=
EXTT6=
EXTT7=
EXTT8=
EXTT9=
EXTT10=
EXTT11=
EXTT12=
EXTT13=
EXTT14=
EXTT15=
EXTT16=
EXTT17=
EXTT18=
PLAYORDER=
